<svg xmlns="http://www.w3.org/2000/svg" version="1.0" width="512.000000pt" height="512.000000pt"
    viewBox="0 0 512.000000 512.000000" preserveAspectRatio="xMidYMid meet">
    <g transform="translate(0.000000,512.000000) scale(0.100000,-0.100000)" fill="currentColor" stroke="none">
        <path
            d="M3495 4908 c-108 -38 -163 -160 -120 -266 10 -23 76 -97 173 -194 l157 -158 -1360 0 c-906 0 -1390 -4 -1450 -11 -410 -49 -751 -348 -863 -758 l-27 -96 -3 -795 c-3 -834 -3 -842 41 -904 30 -42 118 -80 173 -73 61 6 132 53 158 102 21 39 21 53 26 835 5 735 7 799 24 850 69 208 217 357 426 426 52 18 126 19 1454 22 l1400 2 -170 -172 c-148 -151 -172 -179 -183 -221 -18 -62 -9 -121 26 -171 55 -79 162 -108 247 -66 27 12 165 144 393 372 369 371 373 376 373 463 -1 73 -32 111 -373 452 -346 346 -380 373 -457 372 -19 0 -48 -5 -65 -11z">
        </path>
        <path
            d="M4850 3457 c-47 -15 -103 -74 -118 -123 -9 -31 -12 -229 -12 -796 0 -718 -1 -759 -20 -832 -55 -216 -210 -379 -430 -452 -52 -18 -126 -19 -1454 -22 l-1400 -2 170 172 c148 151 172 179 183 221 47 167 -118 311 -274 238 -26 -12 -159 -138 -392 -372 -369 -372 -373 -377 -373 -464 1 -73 32 -111 378 -456 283 -283 345 -339 384 -354 121 -45 253 37 266 163 8 89 -6 113 -181 290 l-161 162 1360 0 c881 0 1389 4 1444 10 231 29 435 128 598 292 131 130 220 285 270 468 l27 95 3 795 c2 607 0 805 -9 839 -29 105 -147 163 -259 128z">
        </path>
    </g>
</svg>